<?xml version="1.0" encoding="UTF-8"?>
<svg xmlns="http://www.w3.org/2000/svg" xmlns:xlink="http://www.w3.org/1999/xlink" width="20px" height="23px" viewBox="0 0 20 22" version="1.1">
<defs>
<linearGradient id="linear0" gradientUnits="userSpaceOnUse" x1="0.671" y1="64.319" x2="55.200001" y2="64.319" gradientTransform="matrix(0.357143,0,0,0.34375,0,0)">
<stop offset="0" style="stop-color:rgb(100%,33.333333%,0%);stop-opacity:1;"/>
<stop offset="0.41" style="stop-color:rgb(100%,33.333333%,0%);stop-opacity:1;"/>
<stop offset="0.582" style="stop-color:rgb(100%,12.54902%,0%);stop-opacity:1;"/>
<stop offset="1" style="stop-color:rgb(100%,12.54902%,0%);stop-opacity:1;"/>
</linearGradient>
<linearGradient id="linear1" gradientUnits="userSpaceOnUse" x1="6.278" y1="11.466" x2="50.564999" y2="11.466" gradientTransform="matrix(0.357143,0,0,0.34375,0,0)">
<stop offset="0" style="stop-color:rgb(100%,27.058824%,16.470588%);stop-opacity:1;"/>
<stop offset="1" style="stop-color:rgb(100%,12.54902%,0%);stop-opacity:1;"/>
</linearGradient>
</defs>
<g id="surface1">
<path style=" stroke:none;fill-rule:evenodd;fill:url(#linear0);" d="M 19.03125 5.265625 L 19.570312 4.003906 C 19.570312 4.003906 18.886719 3.300781 18.058594 2.503906 C 17.230469 1.710938 15.480469 2.175781 15.480469 2.175781 L 13.484375 0 L 6.472656 0 L 4.476562 2.175781 C 4.476562 2.175781 2.722656 1.710938 1.894531 2.503906 C 1.066406 3.300781 0.386719 4.003906 0.386719 4.003906 L 0.921875 5.265625 L 0.238281 7.140625 C 0.238281 7.140625 2.246094 14.4375 2.480469 15.332031 C 2.941406 17.085938 3.257812 17.765625 4.574219 18.652344 C 5.886719 19.542969 8.273438 21.085938 8.664062 21.320312 C 9.050781 21.554688 9.539062 21.953125 9.976562 21.953125 C 10.414062 21.953125 10.902344 21.554688 11.292969 21.320312 C 11.679688 21.089844 14.066406 19.542969 15.382812 18.652344 C 16.695312 17.765625 17.011719 17.085938 17.476562 15.332031 C 17.710938 14.4375 19.714844 7.140625 19.714844 7.140625 Z M 19.03125 5.265625 "/>
<path style=" stroke:none;fill-rule:evenodd;fill:rgb(100%,100%,100%);fill-opacity:1;" d="M 12.460938 3.957031 C 12.753906 3.957031 14.917969 3.558594 14.917969 3.558594 C 14.917969 3.558594 17.488281 6.542969 17.488281 7.179688 C 17.488281 7.707031 17.265625 7.914062 17.003906 8.15625 C 16.949219 8.207031 16.894531 8.261719 16.839844 8.316406 L 14.914062 10.28125 C 14.894531 10.304688 14.871094 10.324219 14.851562 10.34375 C 14.660156 10.53125 14.375 10.804688 14.574219 11.257812 L 14.617188 11.351562 C 14.835938 11.84375 15.105469 12.449219 14.761719 13.066406 C 14.394531 13.722656 13.769531 14.160156 13.367188 14.085938 C 12.964844 14.015625 12.023438 13.539062 11.675781 13.324219 C 11.328125 13.105469 10.230469 12.234375 10.230469 11.902344 C 10.230469 11.625 11.019531 11.160156 11.402344 10.9375 C 11.480469 10.890625 11.539062 10.855469 11.574219 10.832031 C 11.613281 10.808594 11.679688 10.769531 11.761719 10.71875 C 12.113281 10.507812 12.746094 10.132812 12.761719 9.964844 C 12.78125 9.757812 12.773438 9.695312 12.492188 9.1875 C 12.433594 9.078125 12.363281 8.960938 12.289062 8.839844 C 12.019531 8.394531 11.71875 7.898438 11.785156 7.539062 C 11.859375 7.136719 12.515625 6.90625 13.074219 6.710938 C 13.144531 6.6875 13.210938 6.660156 13.277344 6.636719 L 13.855469 6.429688 C 14.410156 6.226562 15.027344 6.007812 15.132812 5.960938 C 15.273438 5.898438 15.234375 5.839844 14.808594 5.800781 C 14.738281 5.792969 14.671875 5.785156 14.601562 5.78125 C 14.074219 5.726562 13.097656 5.625 12.625 5.753906 C 12.53125 5.777344 12.425781 5.804688 12.316406 5.832031 C 11.785156 5.972656 11.132812 6.140625 11.070312 6.238281 C 11.058594 6.257812 11.046875 6.273438 11.039062 6.285156 C 10.976562 6.367188 10.9375 6.421875 11.003906 6.769531 C 11.023438 6.871094 11.066406 7.078125 11.117188 7.328125 C 11.261719 8.066406 11.492188 9.21875 11.519531 9.476562 C 11.523438 9.515625 11.53125 9.546875 11.535156 9.582031 C 11.570312 9.871094 11.59375 10.0625 11.246094 10.140625 L 11.15625 10.160156 C 10.761719 10.246094 10.183594 10.375 9.976562 10.375 C 9.769531 10.375 9.191406 10.246094 8.796875 10.160156 L 8.707031 10.140625 C 8.359375 10.0625 8.382812 9.871094 8.421875 9.582031 C 8.425781 9.546875 8.429688 9.511719 8.433594 9.476562 C 8.460938 9.21875 8.691406 8.0625 8.839844 7.324219 C 8.886719 7.074219 8.929688 6.871094 8.949219 6.769531 C 9.015625 6.421875 8.976562 6.367188 8.914062 6.285156 C 8.90625 6.269531 8.894531 6.253906 8.882812 6.238281 C 8.820312 6.140625 8.167969 5.972656 7.636719 5.832031 C 7.527344 5.804688 7.421875 5.777344 7.328125 5.753906 C 6.855469 5.625 5.882812 5.726562 5.351562 5.78125 C 5.273438 5.789062 5.203125 5.796875 5.144531 5.800781 C 4.71875 5.839844 4.683594 5.898438 4.824219 5.960938 C 4.925781 6.007812 5.542969 6.226562 6.097656 6.429688 C 6.3125 6.503906 6.515625 6.578125 6.675781 6.636719 C 6.742188 6.660156 6.8125 6.683594 6.878906 6.710938 C 7.4375 6.90625 8.09375 7.136719 8.167969 7.539062 C 8.234375 7.898438 7.933594 8.394531 7.664062 8.839844 C 7.59375 8.960938 7.523438 9.078125 7.460938 9.1875 C 7.179688 9.695312 7.171875 9.757812 7.191406 9.964844 C 7.207031 10.132812 7.839844 10.507812 8.191406 10.71875 C 8.273438 10.769531 8.339844 10.808594 8.378906 10.832031 C 8.414062 10.855469 8.472656 10.890625 8.550781 10.9375 C 8.933594 11.160156 9.726562 11.625 9.726562 11.902344 C 9.726562 12.234375 8.625 13.105469 8.277344 13.324219 C 7.933594 13.539062 6.988281 14.015625 6.585938 14.085938 C 6.1875 14.160156 5.558594 13.722656 5.191406 13.066406 C 4.847656 12.449219 5.117188 11.84375 5.335938 11.351562 L 5.378906 11.257812 C 5.578125 10.804688 5.296875 10.53125 5.101562 10.34375 C 5.082031 10.324219 5.0625 10.304688 5.039062 10.28125 L 3.117188 8.316406 C 3.058594 8.261719 3.003906 8.207031 2.949219 8.15625 C 2.6875 7.914062 2.46875 7.707031 2.46875 7.179688 C 2.46875 6.542969 5.035156 3.558594 5.035156 3.558594 C 5.035156 3.558594 7.203125 3.957031 7.492188 3.957031 C 7.726562 3.957031 8.175781 3.808594 8.644531 3.652344 C 8.765625 3.613281 8.886719 3.574219 9.003906 3.535156 C 9.585938 3.347656 9.976562 3.347656 9.976562 3.347656 C 9.976562 3.347656 10.367188 3.347656 10.949219 3.535156 C 11.070312 3.574219 11.1875 3.613281 11.308594 3.652344 C 11.777344 3.808594 12.226562 3.957031 12.460938 3.957031 Z M 12.089844 14.511719 C 12.546875 14.738281 12.871094 14.898438 12.992188 14.972656 C 13.152344 15.066406 13.054688 15.25 12.910156 15.347656 C 12.765625 15.445312 10.820312 16.894531 10.632812 17.054688 L 10.554688 17.121094 C 10.375 17.277344 10.140625 17.480469 9.976562 17.480469 C 9.8125 17.480469 9.582031 17.277344 9.398438 17.121094 L 9.320312 17.054688 C 9.132812 16.894531 7.1875 15.445312 7.042969 15.347656 C 6.898438 15.25 6.800781 15.070312 6.960938 14.972656 C 7.082031 14.898438 7.410156 14.738281 7.867188 14.511719 L 8.300781 14.292969 C 8.988281 13.953125 9.84375 13.664062 9.976562 13.664062 C 10.109375 13.664062 10.964844 13.953125 11.652344 14.292969 C 11.808594 14.371094 11.953125 14.445312 12.089844 14.511719 Z M 12.089844 14.511719 "/>
<path style=" stroke:none;fill-rule:evenodd;fill:url(#linear1);" d="M 15.480469 2.175781 L 13.484375 0 L 6.472656 0 L 4.476562 2.175781 C 4.476562 2.175781 2.722656 1.710938 1.894531 2.503906 C 1.894531 2.503906 4.230469 2.300781 5.035156 3.558594 C 5.035156 3.558594 7.203125 3.957031 7.492188 3.957031 C 7.785156 3.957031 8.417969 3.722656 9.003906 3.535156 C 9.585938 3.347656 9.976562 3.347656 9.976562 3.347656 C 9.976562 3.347656 10.367188 3.347656 10.949219 3.535156 C 11.535156 3.722656 12.167969 3.957031 12.460938 3.957031 C 12.753906 3.957031 14.917969 3.558594 14.917969 3.558594 C 15.722656 2.300781 18.058594 2.503906 18.058594 2.503906 C 17.230469 1.710938 15.480469 2.175781 15.480469 2.175781 Z M 15.480469 2.175781 "/>
</g>
</svg>
